<svg xmlns="http://www.w3.org/2000/svg" xmlns:xlink="http://www.w3.org/1999/xlink" width="512" zoomAndPan="magnify" viewBox="0 0 384 383.999986" height="512" preserveAspectRatio="xMidYMid meet" version="1.0"><defs><g/></defs><path fill="#ed0d91" d="M 101.253906 141.800781 C 101.269531 141.824219 101.292969 141.855469 101.320312 141.898438 C 101.292969 141.855469 101.269531 141.824219 101.253906 141.800781 Z M 136.78125 93.710938 C 131.199219 91.023438 124.496094 93.371094 121.808594 98.960938 L 101.226562 141.761719 C 101.226562 141.761719 101.234375 141.773438 101.25 141.796875 C 101.234375 141.773438 101.226562 141.761719 101.226562 141.761719 L 89.910156 130.453125 C 75.722656 116.269531 52.652344 116.289062 38.484375 130.488281 C 24.316406 144.691406 24.332031 167.78125 38.523438 181.964844 L 72.476562 215.902344 C 76.863281 220.285156 83.964844 220.28125 88.34375 215.890625 C 92.722656 211.5 92.71875 204.390625 88.332031 200.007812 L 54.375 166.070312 C 48.945312 160.640625 48.9375 151.796875 54.363281 146.359375 C 59.789062 140.921875 68.621094 140.914062 74.058594 146.34375 L 96.554688 168.832031 C 99.128906 171.402344 102.785156 172.566406 106.367188 171.957031 C 109.949219 171.34375 113.015625 169.035156 114.59375 165.757812 L 127.371094 139.175781 L 142.027344 108.699219 C 144.710938 103.113281 142.367188 96.402344 136.78125 93.710938 " fill-opacity="1" fill-rule="nonzero"/><path fill="#9b176a" d="M 136.78125 93.710938 C 131.199219 91.023438 124.496094 93.371094 121.808594 98.960938 L 101.226562 141.761719 C 101.226562 141.761719 111.058594 153.355469 120.53125 146.539062 C 122.714844 144.972656 125.007812 142.605469 127.371094 139.175781 L 142.027344 108.699219 C 144.710938 103.113281 142.367188 96.402344 136.78125 93.710938 " fill-opacity="1" fill-rule="nonzero"/><path fill="#00adef" d="M 43.515625 222.503906 C 43.5 222.480469 43.476562 222.449219 43.449219 222.40625 C 43.476562 222.449219 43.5 222.480469 43.515625 222.503906 Z M 7.984375 270.589844 C 13.566406 273.28125 20.269531 270.929688 22.957031 265.34375 L 43.539062 222.539062 C 43.539062 222.539062 43.53125 222.53125 43.515625 222.507812 C 43.53125 222.527344 43.539062 222.539062 43.539062 222.539062 L 54.855469 233.851562 C 69.046875 248.035156 92.113281 248.015625 106.28125 233.8125 C 120.449219 219.613281 120.433594 196.519531 106.242188 182.339844 L 72.289062 148.402344 C 67.90625 144.019531 60.800781 144.023438 56.425781 148.414062 C 52.046875 152.800781 52.050781 159.910156 56.4375 164.292969 L 90.390625 198.230469 C 95.824219 203.660156 95.832031 212.507812 90.40625 217.945312 C 84.980469 223.382812 76.144531 223.390625 70.710938 217.960938 L 48.210938 195.46875 C 45.640625 192.902344 41.980469 191.734375 38.398438 192.347656 C 34.816406 192.957031 31.75 195.269531 30.175781 198.546875 L 17.394531 225.128906 L 2.742188 255.601562 C 0.0546875 261.191406 2.402344 267.902344 7.984375 270.589844 " fill-opacity="1" fill-rule="nonzero"/><path fill="#03466e" d="M 7.984375 270.589844 C 13.566406 273.28125 20.269531 270.929688 22.957031 265.34375 L 43.539062 222.539062 C 43.539062 222.539062 33.710938 210.945312 24.238281 217.765625 C 22.054688 219.332031 19.757812 221.699219 17.394531 225.128906 L 2.742188 255.601562 C 0.0546875 261.191406 2.402344 267.902344 7.984375 270.589844 " fill-opacity="1" fill-rule="nonzero"/><g fill="#ed0d91" fill-opacity="1"><g transform="translate(120.609454, 200.605912)"><g><path d="M 18.207031 0.648438 C 27.132812 0.648438 32.171875 -3.890625 32.171875 -10.921875 C 32.171875 -19.453125 24.890625 -21 18.554688 -22.394531 C 13.765625 -23.441406 9.527344 -24.390625 9.527344 -28.28125 C 9.527344 -31.421875 12.121094 -33.21875 16.210938 -33.21875 C 20.25 -33.21875 23.742188 -31.421875 24.789062 -27.035156 L 31.125 -27.035156 C 29.875 -35.113281 23.390625 -38.65625 16.308594 -38.65625 C 8.777344 -38.65625 3.191406 -34.765625 3.191406 -27.730469 C 3.191406 -19.902344 10.074219 -18.40625 16.160156 -17.109375 C 21.199219 -16.011719 25.835938 -15.011719 25.835938 -10.523438 C 25.835938 -6.632812 22.742188 -4.789062 18.304688 -4.789062 C 14.117188 -4.789062 9.578125 -6.433594 8.328125 -12.070312 L 1.894531 -12.070312 C 2.941406 -2.695312 10.824219 0.648438 18.207031 0.648438 Z M 18.207031 0.648438 "/></g></g></g><g fill="#ed0d91" fill-opacity="1"><g transform="translate(154.973114, 200.605912)"><g><path d="M 13.265625 0 L 13.265625 -4.9375 L 11.621094 -4.9375 C 9.527344 -4.9375 8.976562 -5.886719 8.976562 -7.980469 L 8.976562 -38.054688 L 3.09375 -38.054688 L 3.09375 -6.433594 C 3.09375 -1.644531 5.488281 0 9.625 0 Z M 13.265625 0 "/></g></g></g><g fill="#ed0d91" fill-opacity="1"><g transform="translate(169.586401, 200.605912)"><g><path d="M 11.171875 0.546875 C 13.667969 0.546875 15.859375 0.148438 17.605469 -0.996094 C 18.703125 -1.695312 19.652344 -2.695312 20.398438 -3.988281 L 20.398438 0 L 26.285156 0 L 26.285156 -15.113281 C 26.285156 -18.304688 26.285156 -22.695312 23.191406 -25.585938 C 21.097656 -27.480469 18.054688 -28.378906 14.8125 -28.378906 C 9.375 -28.378906 4.140625 -25.386719 3.140625 -19.101562 L 9.027344 -19.101562 C 9.578125 -21.945312 11.96875 -23.640625 14.761719 -23.640625 C 16.558594 -23.640625 17.957031 -23.09375 18.953125 -22.09375 C 19.902344 -21.097656 20.398438 -19.703125 20.449219 -17.804688 L 11.621094 -16.160156 C 9.078125 -15.660156 6.832031 -14.964844 5.136719 -13.714844 C 3.242188 -12.320312 2.09375 -10.324219 2.09375 -7.582031 C 2.09375 -2.394531 5.835938 0.546875 11.171875 0.546875 Z M 12.46875 -4.238281 C 9.824219 -4.238281 7.980469 -5.488281 7.980469 -7.730469 C 7.980469 -8.777344 8.328125 -9.578125 8.976562 -10.226562 C 9.824219 -11.023438 11.074219 -11.523438 13.066406 -11.921875 L 20.5 -13.367188 C 20.5 -9.375 19.601562 -6.734375 16.308594 -5.085938 C 15.164062 -4.539062 13.867188 -4.238281 12.46875 -4.238281 Z M 12.46875 -4.238281 "/></g></g></g><g fill="#ed0d91" fill-opacity="1"><g transform="translate(198.812974, 200.605912)"><g><path d="M 15.960938 0.546875 C 22.542969 0.546875 27.582031 -3.09375 28.878906 -9.226562 L 22.496094 -9.226562 C 21.746094 -6.285156 19.402344 -4.390625 15.960938 -4.390625 C 11.320312 -4.390625 8.082031 -8.230469 8.082031 -14.066406 C 8.082031 -19.703125 11.320312 -23.492188 15.960938 -23.492188 C 19.101562 -23.492188 21.398438 -21.894531 22.34375 -19.101562 L 28.730469 -19.101562 C 27.433594 -24.789062 22.542969 -28.378906 15.960938 -28.378906 C 7.679688 -28.378906 2.09375 -22.445312 2.09375 -14.066406 C 2.09375 -5.386719 7.730469 0.546875 15.960938 0.546875 Z M 15.960938 0.546875 "/></g></g></g><g fill="#ed0d91" fill-opacity="1"><g transform="translate(229.436034, 200.605912)"><g><path d="M 9.128906 0 L 9.128906 -14.066406 L 21.199219 0 L 28.679688 0 L 14.914062 -15.710938 L 27.683594 -27.882812 L 20 -27.882812 L 9.128906 -17.257812 L 9.128906 -38.054688 L 3.242188 -38.054688 L 3.242188 0 Z M 9.128906 0 "/></g></g></g><g fill="#ed0d91" fill-opacity="1"><g transform="translate(258.463103, 200.605912)"><g><path d="M 9.875 0 L 9.875 -29.328125 L 25.984375 0 L 33.617188 0 L 33.617188 -38.054688 L 27.332031 -38.054688 L 27.332031 -8.726562 L 11.222656 -38.054688 L 3.542969 -38.054688 L 3.542969 0 Z M 9.875 0 "/></g></g></g><g fill="#ed0d91" fill-opacity="1"><g transform="translate(295.669628, 200.605912)"><g><path d="M 16.109375 0.546875 C 24.488281 0.546875 30.175781 -5.488281 30.175781 -14.066406 C 30.175781 -22.445312 24.390625 -28.378906 16.109375 -28.378906 C 7.832031 -28.378906 2.09375 -22.445312 2.09375 -14.066406 C 2.09375 -5.386719 7.832031 0.546875 16.109375 0.546875 Z M 16.109375 -4.589844 C 11.472656 -4.589844 8.082031 -8.429688 8.082031 -14.066406 C 8.082031 -19.453125 11.421875 -23.292969 16.109375 -23.292969 C 20.796875 -23.292969 24.140625 -19.351562 24.140625 -14.066406 C 24.140625 -8.527344 20.796875 -4.589844 16.109375 -4.589844 Z M 16.109375 -4.589844 "/></g></g></g><g fill="#ed0d91" fill-opacity="1"><g transform="translate(327.938549, 200.605912)"><g><path d="M 16.957031 0 L 16.957031 -4.9375 L 14.015625 -4.9375 C 11.570312 -4.9375 11.320312 -6.285156 11.320312 -8.082031 L 11.320312 -22.992188 L 17.007812 -22.992188 L 17.007812 -27.882812 L 11.320312 -27.882812 L 11.320312 -38.054688 L 5.4375 -38.054688 L 5.4375 -27.882812 L 1.246094 -27.882812 L 1.246094 -22.992188 L 5.4375 -22.992188 L 5.4375 -6.433594 C 5.4375 -1.644531 7.832031 0 11.96875 0 Z M 16.957031 0 "/></g></g></g><g fill="#ed0d91" fill-opacity="1"><g transform="translate(346.691445, 200.605912)"><g><path d="M 16.011719 0.546875 C 23.34375 0.546875 27.582031 -3.890625 29.226562 -9.226562 L 23.144531 -9.226562 C 22.144531 -6.734375 19.703125 -4.589844 16.160156 -4.589844 C 12.96875 -4.589844 10.324219 -6.484375 9.027344 -9.625 C 8.527344 -10.472656 8.230469 -11.671875 8.082031 -12.71875 L 29.726562 -12.71875 L 29.726562 -14.214844 C 29.726562 -23.890625 22.992188 -28.378906 15.859375 -28.378906 C 6.683594 -28.378906 2.09375 -21.148438 2.09375 -13.816406 C 2.09375 -5.585938 7.679688 0.546875 16.011719 0.546875 Z M 8.429688 -17.355469 C 8.578125 -18.105469 8.828125 -19.101562 9.425781 -20 C 10.824219 -22.34375 13.167969 -23.59375 16.058594 -23.59375 C 18.855469 -23.59375 21.347656 -22.394531 22.695312 -20 C 23.242188 -19.152344 23.492188 -18.15625 23.59375 -17.355469 Z M 8.429688 -17.355469 "/></g></g></g></svg>