<svg xmlns="http://www.w3.org/2000/svg" xmlns:xlink="http://www.w3.org/1999/xlink" width="1920" zoomAndPan="magnify" viewBox="0 0 1440 809.999993" height="1080" preserveAspectRatio="xMidYMid meet" version="1.0"><defs><g/></defs><path fill="#ed0d91" d="M 383.503906 231.402344 C 383.5625 231.488281 383.648438 231.613281 383.753906 231.773438 C 383.648438 231.613281 383.5625 231.488281 383.503906 231.402344 Z M 518.074219 49.335938 C 496.929688 39.160156 471.535156 48.054688 461.359375 69.210938 L 383.410156 231.257812 C 383.410156 231.257812 383.433594 231.304688 383.496094 231.390625 C 383.433594 231.304688 383.410156 231.257812 383.410156 231.257812 L 340.542969 188.433594 C 286.800781 134.746094 199.425781 134.8125 145.761719 188.578125 C 92.101562 242.347656 92.164062 329.773438 145.90625 383.460938 L 274.515625 511.953125 C 291.121094 528.542969 318.023438 528.527344 334.605469 511.90625 C 351.191406 495.292969 351.171875 468.375 334.558594 451.78125 L 205.957031 323.292969 C 185.378906 302.730469 185.351562 269.253906 205.902344 248.65625 C 226.449219 228.070312 259.914062 228.042969 280.496094 248.605469 L 365.714844 333.75 C 375.457031 343.476562 389.304688 347.886719 402.875 345.574219 C 416.445312 343.257812 428.058594 334.507812 434.027344 322.101562 L 482.433594 221.46875 L 537.9375 106.085938 C 548.109375 84.933594 539.21875 59.519531 518.074219 49.335938 " fill-opacity="1" fill-rule="nonzero"/><path fill="#9b176a" d="M 518.074219 49.335938 C 496.929688 39.160156 471.535156 48.054688 461.359375 69.210938 L 383.410156 231.257812 C 383.410156 231.257812 420.640625 275.152344 456.523438 249.339844 C 464.789062 243.414062 473.476562 234.445312 482.433594 221.46875 L 537.9375 106.085938 C 548.109375 84.933594 539.21875 59.519531 518.074219 49.335938 " fill-opacity="1" fill-rule="nonzero"/><path fill="#00adef" d="M 164.8125 536.945312 C 164.753906 536.859375 164.667969 536.734375 164.5625 536.574219 C 164.671875 536.734375 164.753906 536.859375 164.8125 536.945312 Z M 30.242188 719.007812 C 51.386719 729.191406 76.777344 720.296875 86.957031 699.140625 L 164.910156 537.085938 C 164.910156 537.085938 164.878906 537.046875 164.820312 536.957031 C 164.878906 537.039062 164.910156 537.085938 164.910156 537.085938 L 207.769531 579.914062 C 261.515625 633.605469 348.890625 633.539062 402.550781 579.769531 C 456.210938 526 456.152344 438.574219 402.40625 384.886719 L 273.800781 256.394531 C 257.195312 239.800781 230.292969 239.824219 213.710938 256.441406 C 197.128906 273.054688 197.144531 299.972656 213.753906 316.566406 L 342.359375 445.050781 C 362.9375 465.609375 362.964844 499.09375 342.414062 519.683594 C 321.863281 540.28125 288.402344 540.304688 267.820312 519.746094 L 182.601562 434.597656 C 172.863281 424.871094 159.007812 420.460938 145.441406 422.773438 C 131.871094 425.089844 120.257812 433.839844 114.289062 446.246094 L 65.882812 546.878906 L 10.378906 662.261719 C 0.203125 683.417969 9.09375 708.828125 30.242188 719.007812 " fill-opacity="1" fill-rule="nonzero"/><path fill="#03466e" d="M 30.242188 719.007812 C 51.386719 729.191406 76.777344 720.296875 86.957031 699.140625 L 164.910156 537.085938 C 164.910156 537.085938 127.675781 493.1875 91.796875 519.011719 C 83.527344 524.933594 74.835938 533.90625 65.882812 546.878906 L 10.378906 662.261719 C 0.203125 683.417969 9.09375 708.828125 30.242188 719.007812 " fill-opacity="1" fill-rule="nonzero"/><g fill="#ed0d91" fill-opacity="1"><g transform="translate(456.250879, 453.698675)"><g><path d="M 68.867188 2.453125 C 102.640625 2.453125 121.699219 -14.71875 121.699219 -41.320312 C 121.699219 -73.585938 94.152344 -79.433594 70.1875 -84.71875 C 52.074219 -88.679688 36.039062 -92.265625 36.039062 -106.980469 C 36.039062 -118.867188 45.847656 -125.660156 61.320312 -125.660156 C 76.605469 -125.660156 89.8125 -118.867188 93.773438 -102.265625 L 117.734375 -102.265625 C 113.019531 -132.832031 88.492188 -146.226562 61.699219 -146.226562 C 33.207031 -146.226562 12.074219 -131.507812 12.074219 -104.90625 C 12.074219 -75.28125 38.113281 -69.621094 61.132812 -64.71875 C 80.1875 -60.566406 97.734375 -56.792969 97.734375 -39.8125 C 97.734375 -25.09375 86.039062 -18.113281 69.246094 -18.113281 C 53.394531 -18.113281 36.226562 -24.339844 31.507812 -45.660156 L 7.167969 -45.660156 C 11.132812 -10.1875 40.945312 2.453125 68.867188 2.453125 Z M 68.867188 2.453125 "/></g></g></g><g fill="#ed0d91" fill-opacity="1"><g transform="translate(586.24444, 453.698675)"><g><path d="M 50.1875 0 L 50.1875 -18.679688 L 43.960938 -18.679688 C 36.039062 -18.679688 33.960938 -22.265625 33.960938 -30.1875 L 33.960938 -143.960938 L 11.699219 -143.960938 L 11.699219 -24.339844 C 11.699219 -6.226562 20.753906 0 36.414062 0 Z M 50.1875 0 "/></g></g></g><g fill="#ed0d91" fill-opacity="1"><g transform="translate(641.524732, 453.698675)"><g><path d="M 42.265625 2.074219 C 51.699219 2.074219 60 0.566406 66.605469 -3.773438 C 70.753906 -6.414062 74.339844 -10.1875 77.167969 -15.09375 L 77.167969 0 L 99.433594 0 L 99.433594 -57.167969 C 99.433594 -69.246094 99.433594 -85.847656 87.734375 -96.792969 C 79.8125 -103.960938 68.300781 -107.359375 56.039062 -107.359375 C 35.472656 -107.359375 15.660156 -96.039062 11.886719 -72.265625 L 34.152344 -72.265625 C 36.226562 -83.019531 45.28125 -89.433594 55.847656 -89.433594 C 62.640625 -89.433594 67.925781 -87.359375 71.699219 -83.585938 C 75.28125 -79.8125 77.167969 -74.527344 77.359375 -67.359375 L 43.960938 -61.132812 C 34.339844 -59.246094 25.847656 -56.605469 19.433594 -51.886719 C 12.265625 -46.605469 7.925781 -39.054688 7.925781 -28.679688 C 7.925781 -9.054688 22.074219 2.074219 42.265625 2.074219 Z M 47.167969 -16.039062 C 37.167969 -16.039062 30.1875 -20.753906 30.1875 -29.246094 C 30.1875 -33.207031 31.507812 -36.226562 33.960938 -38.679688 C 37.167969 -41.699219 41.886719 -43.585938 49.433594 -45.09375 L 77.546875 -50.566406 C 77.546875 -35.472656 74.152344 -25.472656 61.699219 -19.246094 C 57.359375 -17.167969 52.453125 -16.039062 47.167969 -16.039062 Z M 47.167969 -16.039062 "/></g></g></g><g fill="#ed0d91" fill-opacity="1"><g transform="translate(752.085314, 453.698675)"><g><path d="M 60.378906 2.074219 C 85.28125 2.074219 104.339844 -11.699219 109.246094 -34.90625 L 85.09375 -34.90625 C 82.265625 -23.773438 73.394531 -16.605469 60.378906 -16.605469 C 42.832031 -16.605469 30.566406 -31.132812 30.566406 -53.207031 C 30.566406 -74.527344 42.832031 -88.867188 60.378906 -88.867188 C 72.265625 -88.867188 80.945312 -82.832031 84.527344 -72.265625 L 108.679688 -72.265625 C 103.773438 -93.773438 85.28125 -107.359375 60.378906 -107.359375 C 29.054688 -107.359375 7.925781 -84.90625 7.925781 -53.207031 C 7.925781 -20.378906 29.246094 2.074219 60.378906 2.074219 Z M 60.378906 2.074219 "/></g></g></g><g fill="#ed0d91" fill-opacity="1"><g transform="translate(867.928637, 453.698675)"><g><path d="M 34.527344 0 L 34.527344 -53.207031 L 80.1875 0 L 108.492188 0 L 56.414062 -59.433594 L 104.71875 -105.472656 L 75.660156 -105.472656 L 34.527344 -65.28125 L 34.527344 -143.960938 L 12.265625 -143.960938 L 12.265625 0 Z M 34.527344 0 "/></g></g></g><g fill="#ed0d91" fill-opacity="1"><g transform="translate(977.734522, 453.698675)"><g><path d="M 37.359375 0 L 37.359375 -110.945312 L 98.300781 0 L 127.167969 0 L 127.167969 -143.960938 L 103.394531 -143.960938 L 103.394531 -33.019531 L 42.453125 -143.960938 L 13.394531 -143.960938 L 13.394531 0 Z M 37.359375 0 "/></g></g></g><g fill="#ed0d91" fill-opacity="1"><g transform="translate(1118.482294, 453.698675)"><g><path d="M 60.945312 2.074219 C 92.640625 2.074219 114.152344 -20.753906 114.152344 -53.207031 C 114.152344 -84.90625 92.265625 -107.359375 60.945312 -107.359375 C 29.621094 -107.359375 7.925781 -84.90625 7.925781 -53.207031 C 7.925781 -20.378906 29.621094 2.074219 60.945312 2.074219 Z M 60.945312 -17.359375 C 43.394531 -17.359375 30.566406 -31.886719 30.566406 -53.207031 C 30.566406 -73.585938 43.207031 -88.113281 60.945312 -88.113281 C 78.679688 -88.113281 91.320312 -73.207031 91.320312 -53.207031 C 91.320312 -32.265625 78.679688 -17.359375 60.945312 -17.359375 Z M 60.945312 -17.359375 "/></g></g></g><g fill="#ed0d91" fill-opacity="1"><g transform="translate(1240.55171, 453.698675)"><g><path d="M 64.152344 0 L 64.152344 -18.679688 L 53.019531 -18.679688 C 43.773438 -18.679688 42.832031 -23.773438 42.832031 -30.566406 L 42.832031 -86.980469 L 64.339844 -86.980469 L 64.339844 -105.472656 L 42.832031 -105.472656 L 42.832031 -143.960938 L 20.566406 -143.960938 L 20.566406 -105.472656 L 4.71875 -105.472656 L 4.71875 -86.980469 L 20.566406 -86.980469 L 20.566406 -24.339844 C 20.566406 -6.226562 29.621094 0 45.28125 0 Z M 64.152344 0 "/></g></g></g><g fill="#ed0d91" fill-opacity="1"><g transform="translate(1311.49164, 453.698675)"><g><path d="M 60.566406 2.074219 C 88.300781 2.074219 104.339844 -14.71875 110.566406 -34.90625 L 87.546875 -34.90625 C 83.773438 -25.472656 74.527344 -17.359375 61.132812 -17.359375 C 49.054688 -17.359375 39.054688 -24.527344 34.152344 -36.414062 C 32.265625 -39.621094 31.132812 -44.152344 30.566406 -48.113281 L 112.453125 -48.113281 L 112.453125 -53.773438 C 112.453125 -90.378906 86.980469 -107.359375 60 -107.359375 C 25.28125 -107.359375 7.925781 -80 7.925781 -52.265625 C 7.925781 -21.132812 29.054688 2.074219 60.566406 2.074219 Z M 31.886719 -65.660156 C 32.453125 -68.492188 33.394531 -72.265625 35.660156 -75.660156 C 40.945312 -84.527344 49.8125 -89.246094 60.753906 -89.246094 C 71.320312 -89.246094 80.753906 -84.71875 85.847656 -75.660156 C 87.925781 -72.453125 88.867188 -68.679688 89.246094 -65.660156 Z M 31.886719 -65.660156 "/></g></g></g></svg>